<?xml version="1.0"?>
<svg version="1.1" xmlns="http://www.w3.org/2000/svg" width="400px" height="200px" style="border: dashed 2px #aaa"><path fill="#" d="M140.064,120.254q0-4.104,2.432-8.132q-2.812-1.786-2.812-5.282q0-4.218,3.724-7.486q4.18-3.686,10.792-3.686q3.04,0,6.536,0.874q0.798,0.19,6.802,2.945t8.626,2.755q1.748,0,2.622-0.988q0.456-0.494,0.456-1.064t-0.494-1.026q-0.266-0.38-0.266-0.494t0.209-0.114t0.722,0.665t0.513,1.558t-1.197,1.71t-3.021,0.817q-2.85,0-8.854-2.755t-7.543-3.059t-3.515-0.304q-7.866,0-12.388,5.092q-0.532,0.57-1.254,2.299t-0.722,3.325q0,2.204,1.558,3.42q1.976-2.888,4.674-4.598t5.472-1.71q3.42,0,3.42,2.66q0,3.192-3.743,6.935t-6.935,3.743q-2.052,0-2.052-1.748q0-0.608,0.323-1.064t0.779-0.342l-0.076,0.874q0,0.57,1.748,0.57q2.584,0,5.453-2.66t3.477-5.206q0.152-0.57,0.152-1.026q0-1.71-2.185-1.71t-4.522,1.672t-4.389,4.408q0.152,0.076,1.178,0.304l2.28,0.076q1.672,0.076,1.672,0.38q0,0.532-1.596,0.532l-0.228,0q-2.318,0-3.8-0.57q-2.926,4.484-2.926,8.246q0,4.864,3.762,4.864q4.256,0,8.854-5.928l7.448-11.096q4.18-6.08,7.258-6.232l1.444,0.342q0.684,0.38,0.684,1.14t-0.38,0.76l-1.216-0.19q-2.622,0-6.726,5.662l-7.562,10.564q-4.864,5.662-9.31,5.662q-3.04,0-4.199-1.634t-1.159-4.75z M178.41246,111.438l0.532-0.114q0.418,0,0.798,0.342t0.38,0.532t-2.356,3.667t-2.356,4.845q0,0.114,0.038,0.228q0.19,0.874,0.836,0.874q1.976,0,7.22-6.536q0.114-0.152,0.266-0.152t0.152,0.285t-0.342,0.741q-4.864,6.498-7.41,6.498q-0.342,0-0.646-0.114q-1.672-0.646-1.672-2.508q0-0.646,0.152-1.292l-2.356,2.28q-2.242,1.976-3.249,1.976t-1.919-0.646q-1.026-0.76-1.026-2.014q0-2.774,3.876-6.631t7.106-3.857q1.254,0,1.672,0.874q0.114,0.304,0.19,0.513t0.114,0.209z M167.05046,120.786q0,1.368,0.95,1.368q2.204,0,6.004-4.826l4.028-5.548q-0.304-0.532-0.988-0.532q-2.318,0-6.156,3.591t-3.838,5.947z M185.86692,122.04q1.254,0,3.23-1.33t3.838-3.61q0.456-0.608,0.722-0.608t0.266,0.228t-1.558,1.976q-3.8,4.18-6.346,4.18q-1.254,0-2.128-0.589t-0.874-1.824t0.646-2.869q1.102-2.584,3.534-6.498q4.446-7.22,6.308-7.22q0.38,0,0.779,0.285t0.437,0.627q-0.874,1.178-3.363,4.522t-3.439,4.807t-1.425,2.185t-0.703,1.121t-0.532,1.045q-0.646,1.292-0.646,2.432t1.254,1.14z M201.83338,123.256q-3.002,0-5.092-4.75q-0.532,0.798-2.394,4.484q-1.368-0.532-1.368-1.444q0-1.634,4.902-8.968t6.726-8.626q0.152-0.114,0.608-0.114q1.178,0,1.178,0.608q0,0.304-2.641,3.42t-2.945,3.762q3.458-1.786,5.51-1.786q1.178,0,2.014,0.95q0.798,0.798,0.798,1.634l0,0.228q-0.304,2.166-3.04,3.572q-2.204,1.178-4.104,1.178t-2.66-0.494q-0.228-0.038-0.361,0.114t-0.057,0.38q1.064,4.712,3.534,4.712q1.292,0,3.325-1.444t4.237-4.066q0.266-0.266,0.475-0.266t0.209,0.209t-0.266,0.589q-2.052,2.508-3.876,3.952q-2.774,2.166-4.712,2.166z M207.30538,111.628q0-0.304-0.342-0.608t-0.722-0.304q-2.052,0-4.921,1.71t-3.515,3.876q0.342,0,1.824,0.114q1.71,0,4.484-1.406q3.192-1.596,3.192-3.382z M220.9603,120.254q0-4.104,2.432-8.132q-2.812-1.786-2.812-5.282q0-4.218,3.724-7.486q4.18-3.686,10.792-3.686q3.04,0,6.536,0.874q0.798,0.19,6.802,2.945t8.626,2.755q1.748,0,2.622-0.988q0.456-0.494,0.456-1.064t-0.494-1.026q-0.266-0.38-0.266-0.494t0.209-0.114t0.722,0.665t0.513,1.558t-1.197,1.71t-3.021,0.817q-2.85,0-8.854-2.755t-7.543-3.059t-3.515-0.304q-7.866,0-12.388,5.092q-0.532,0.57-1.254,2.299t-0.722,3.325q0,2.204,1.558,3.42q1.976-2.888,4.674-4.598t5.472-1.71q3.42,0,3.42,2.66q0,3.192-3.743,6.935t-6.935,3.743q-2.052,0-2.052-1.748q0-0.608,0.323-1.064t0.779-0.342l-0.076,0.874q0,0.57,1.748,0.57q2.584,0,5.453-2.66t3.477-5.206q0.152-0.57,0.152-1.026q0-1.71-2.185-1.71t-4.522,1.672t-4.389,4.408q0.152,0.076,1.178,0.304l2.28,0.076q1.672,0.076,1.672,0.38q0,0.532-1.596,0.532l-0.228,0q-2.318,0-3.8-0.57q-2.926,4.484-2.926,8.246q0,4.864,3.762,4.864q4.256,0,8.854-5.928l7.448-11.096q4.18-6.08,7.258-6.232l1.444,0.342q0.684,0.38,0.684,1.14t-0.38,0.76l-1.216-0.19q-2.622,0-6.726,5.662l-7.562,10.564q-4.864,5.662-9.31,5.662q-3.04,0-4.199-1.634t-1.159-4.75z M248.63076,123.294q-0.418,0-0.76-0.114q-2.432-0.684-2.432-2.736q0-2.66,3.344-6.156t6.004-3.496q0.874,0,1.425,0.475t0.551,1.159q0,2.128-3.211,4.066t-5.225,1.938q-0.304,0-0.532-0.076q-0.57,1.026-0.57,2.166q0,1.976,1.881,1.976t4.883-2.546q2.318-1.862,3.952-3.952q0.342-0.456,0.589-0.456t0.247,0.228t-0.304,0.646q-2.052,2.698-4.94,4.788t-4.902,2.09z M255.81276,112.35q0-0.456-0.969-0.456t-2.755,1.482q-2.394,1.976-3.724,4.142q0.228,0.076,0.494,0.076q1.444,0,3.857-1.539t3.021-3.363q0.076-0.19,0.076-0.342z M261.02522,123.294q-0.418,0-0.76-0.114q-2.432-0.684-2.432-2.736q0-2.66,3.344-6.156t6.004-3.496q0.874,0,1.425,0.475t0.551,1.292t-0.494,1.71t-1.482,0.893t-0.988-0.608q0-0.418,0.513-1.273t0.513-0.912t-0.114-0.057q-1.064,0.114-2.907,1.52t-2.527,2.356l-1.482,2.166q-0.38,0.608-0.551,1.444t-0.171,1.254t0.475,0.95t1.349,0.532q1.9,0,4.712-2.223t4.332-4.237q0.19-0.228,0.456-0.228t0.266,0.152t-0.19,0.38q-2.09,2.774-4.997,4.845t-4.845,2.071z M279.57568,122.648q-2.242,0-2.242-2.622q0-1.482,1.045-3.287t2.565-4.237q-4.864,2.432-8.816,7.182q-2.204,3.306-2.584,3.306q-1.102,0-1.102-0.646q0-0.342,0.456-1.216q3.686-6.574,5.586-9.614q4.522-7.258,6.384-7.866q0.076-0.038,0.152-0.038q0.494,0,0.684,0.798q-0.114,0.798-3.952,5.776q-3.99,5.054-4.522,6.612q1.406-1.026,4.902-3.458q3.762-2.622,4.978-2.622t1.216,0.95q0,0.152-0.019,0.209t-2.641,3.591t-2.622,5.206q0,0.874,0.646,0.874q2.052-0.076,6.156-4.94q0.342-0.342,0.513-0.342t0.171,0.228q0,0.76-3.762,4.104q-2.356,2.052-3.192,2.052z"/><path fill="#" d=""/></svg>
